<svg
     xmlns:dc="http://purl.org/dc/elements/1.1/"
     xmlns:cc="http://creativecommons.org/ns#"
     xmlns:rdf="http://www.w3.org/1999/02/22-rdf-syntax-ns#"
     xmlns:svg="http://www.w3.org/2000/svg"
     xmlns="http://www.w3.org/2000/svg"
     xmlns:sodipodi="http://sodipodi.sourceforge.net/DTD/sodipodi-0.dtd"
     xmlns:inkscape="http://www.inkscape.org/namespaces/inkscape"
     version="1.1"
     id="Calque_1"
     x="0px"
     y="0px"
     width="595.279px"
     height="841.891px"
     viewBox="0 0 595.279 841.891"
     enable-background="new 0 0 595.279 841.891"
     xml:space="preserve"
     sodipodi:docname="PROJ_logo_1.svg"
     inkscape:version="0.92.2 5c3e80d, 2017-08-06"><title
         id="title63">Sphere On A Plane 1</title><metadata
         id="metadata61"><rdf:RDF><cc:Work
                 rdf:about=""><dc:format>image/svg+xml</dc:format><dc:type
                     rdf:resource="http://purl.org/dc/dcmitype/StillImage" /><dc:title>Sphere On A Plane 1</dc:title><cc:license
                     rdf:resource="http://creativecommons.org/licenses/by-sa/4.0/" /><dc:date>Fev 2018</dc:date><dc:creator><cc:Agent><dc:title>Nicolas Bozon</dc:title></cc:Agent></dc:creator><dc:rights><cc:Agent><dc:title>© PROJ.org</dc:title></cc:Agent></dc:rights><dc:publisher><cc:Agent><dc:title>proj.org</dc:title></cc:Agent></dc:publisher><dc:identifier>soap-01</dc:identifier><dc:source>mapsk.in</dc:source><dc:language>english</dc:language><dc:subject><rdf:Bag><rdf:li>sphere</rdf:li><rdf:li>plane</rdf:li><rdf:li>projection</rdf:li><rdf:li>proj</rdf:li></rdf:Bag></dc:subject><dc:description>PROJ logo proposal #1 (Sphere On A Plane)</dc:description><dc:contributor><cc:Agent><dc:title>Kristian Evers, Even Rouault</dc:title></cc:Agent></dc:contributor></cc:Work><cc:License
                 rdf:about="http://creativecommons.org/licenses/by-sa/4.0/"><cc:permits
                     rdf:resource="http://creativecommons.org/ns#Reproduction" /><cc:permits
                     rdf:resource="http://creativecommons.org/ns#Distribution" /><cc:requires
                     rdf:resource="http://creativecommons.org/ns#Notice" /><cc:requires
                     rdf:resource="http://creativecommons.org/ns#Attribution" /><cc:permits
                     rdf:resource="http://creativecommons.org/ns#DerivativeWorks" /><cc:requires
                     rdf:resource="http://creativecommons.org/ns#ShareAlike" /></cc:License></rdf:RDF></metadata><defs
         id="defs59" /><sodipodi:namedview
         pagecolor="#ffffff"
         bordercolor="#666666"
         borderopacity="1"
         objecttolerance="10"
         gridtolerance="10"
         guidetolerance="10"
         inkscape:pageopacity="0"
         inkscape:pageshadow="2"
         inkscape:window-width="640"
         inkscape:window-height="480"
         id="namedview57"
         showgrid="false"
         inkscape:zoom="0.28032133"
         inkscape:cx="297.6395"
         inkscape:cy="420.9455"
         inkscape:window-x="0"
         inkscape:window-y="0"
         inkscape:window-maximized="0"
         inkscape:current-layer="Calque_1" /><g
         id="g54"><path
             fill="none"
             d="M371.171,357.732c0-11.398,0-20.898-0.633-31.662c-21.522,1.898-43.687,3.168-67.116,3.793v0.001v89.29   c22.155-0.638,43.045-2.535,63.951-5.705C370.538,396.36,371.171,376.722,371.171,357.732z"
             id="path2" /><path
             fill="none"
             d="M319.876,198.803c-5.685-3.793-12.023-8.864-16.454-8.864v117.767c22.16-0.625,43.05-1.897,64.568-3.793   C359.764,258.318,341.425,218.429,319.876,198.803z"
             id="path4" /><path
             fill="none"
             d="M211.621,357.729c0,18.369,1.25,37.99,3.797,55.08c21.524,3.812,42.408,5.709,63.933,6.347v-89.291   c-22.794-0.625-45.566-1.895-67.116-4.43C212.234,336.829,211.621,346.329,211.621,357.729z"
             id="path6" /><path
             fill="none"
             d="M442.722,285.545c-17.729-39.252-51.301-70.914-90.554-84.844c19.002,24.693,31.025,59.522,37.369,100.677   C423.721,295.046,437.654,289.354,442.722,285.545z"
             id="path8" /><path
             fill="none"
             d="M279.35,307.703V189.939h-1.249c-28.502,11.398-52.545,55.718-62.684,113.97   C236.306,305.804,257.825,307.078,279.35,307.703z"
             id="path10" /><path
             fill="none"
             d="M393.969,357.732c0,17.091-1.273,35.455-3.159,51.287c65.842-10.762,68.365-25.954,68.365-53.186   c0-15.829-2.521-32.937-7.596-48.129c-12.02,5.067-33.566,12.669-58.886,15.192C393.969,334.934,393.969,345.059,393.969,357.732z"
             id="path12" /><path
             fill="none"
             d="M231.239,201.339c-21.523,10.125-40.524,18.989-57.615,37.354l0,0c-14.575,13.298-25.32,29.764-32.911,46.217   c5.68,5.067,15.18,5.704,52.55,15.829C200.214,260.212,212.262,226.668,231.239,201.339z"
             id="path14" /><path
             fill="none"
             d="M359.231,447.861c1.146-3.723,2.17-7.211,3.077-10.354c-7.035,0.682-14.077,1.278-21.124,1.799"
             id="path16" /><path
             fill="none"
             d="M188.828,357.729c0-12.668,0.638-22.794,1.882-34.834c-29.113-5.687-46.205-10.121-59.498-15.812   c-4.435,15.191-6.979,32.281-6.979,48.752c0,8.227,0,16.453,1.274,23.423c8.224,9.497,29.11,22.157,67.112,29.124   C190.073,392.548,188.828,374.819,188.828,357.729z"
             id="path18" /><path
             fill="#FFFFFF"
             d="M159.076,513.31l-87.085,41.299L297.666,661.63l225.677-107.021l-94.388-44.76   c-36.127,32.272-83.949,51.77-136.92,51.77C241.259,561.617,194.894,543.511,159.076,513.31z"
             id="path20" /><g
             id="g52"><path
                 d="M355.146,460.385l20.912,9.918c1.469-4.043,2.843-8.209,4.144-12.496l-20.97-9.943    C358.012,451.82,356.653,456.044,355.146,460.385z"
                 id="path22" /><g
                 id="g50"><path
                     fill="none"
                     d="M215.418,303.909c20.889,1.896,42.409,3.168,63.933,3.793V189.939h-1.249     C249.599,201.338,225.556,245.657,215.418,303.909z"
                     id="path24" /><path
                     fill="none"
                     d="M173.623,238.691c-14.575,13.299-25.32,29.764-32.912,46.217c5.68,5.067,15.18,5.704,52.55,15.829     c6.953-40.525,19.001-74.069,37.978-99.399C209.715,211.464,190.714,220.327,173.623,238.691z"
                     id="path26" /><path
                     fill="none"
                     d="M211.621,357.727c0,18.37,1.25,37.99,3.797,55.08c21.525,3.812,42.409,5.709,63.932,6.347v-89.291     c-22.794-0.625-45.566-1.895-67.116-4.43C212.233,336.828,211.621,346.328,211.621,357.727z"
                     id="path28" /><path
                     fill="none"
                     d="M190.71,322.894c-29.113-5.688-46.205-10.121-59.498-15.812c-4.435,15.191-6.979,32.282-6.979,48.752     c0,8.228,0,16.454,1.274,23.424c8.224,9.497,29.11,22.157,67.113,29.123c-2.549-15.834-3.793-33.562-3.793-50.652     C188.828,345.06,189.465,334.934,190.71,322.894z"
                     id="path30" /><path
                     fill="none"
                     d="M303.422,329.865v89.29c22.155-0.638,43.045-2.535,63.951-5.705c3.165-17.089,3.798-36.728,3.798-55.717     c0-11.399,0-20.9-0.633-31.662C349.015,327.969,326.853,329.239,303.422,329.865z"
                     id="path32" /><path
                     fill="none"
                     d="M451.582,307.706c-12.02,5.067-33.568,12.669-58.886,15.192c1.273,12.036,1.273,22.161,1.273,34.834     c0,17.092-1.273,35.454-3.159,51.287c65.842-10.762,68.365-25.954,68.365-53.185     C459.176,340.006,456.655,322.898,451.582,307.706z"
                     id="path34" /><path
                     fill="none"
                     d="M352.169,200.701c19.002,24.693,31.025,59.523,37.369,100.677c34.184-6.332,48.117-12.023,53.185-15.833     C424.993,246.293,391.422,214.632,352.169,200.701z"
                     id="path36" /><path
                     fill="none"
                     d="M319.876,198.803c-5.683-3.793-12.023-8.864-16.454-8.864v117.767c22.16-0.625,43.048-1.897,64.568-3.793     C359.764,258.318,341.425,218.429,319.876,198.803z"
                     id="path38" /><g
                     id="g48"><path
                         d="M448.267,490.084l-0.001-0.003l-36.805-17.452c-0.558,0.536-1.104,1.082-1.673,1.608      c-2.638,2.861-5.417,5.562-8.301,8.125h0.001c-3.642,3.238-7.461,6.248-11.411,9.051l38.877,18.437l94.388,44.76L297.666,661.63      L71.991,554.607l87.085-41.297l38.991-18.49c-4.104-2.717-8.096-5.641-11.935-8.803c-3.604-2.967-7.065-6.146-10.369-9.543      l-36.763,17.434c3.081,3.414,6.277,6.72,9.58,9.918c-3.303-3.196-6.5-6.502-9.58-9.918L11,554.607l286.666,135.943      l286.666-135.941L448.267,490.084z"
                         id="path40" /><g
                         id="g46"><path
                             d="M292.036,151.307c-113.986,0-205.783,91.188-205.783,204.521c0,53.395,19.936,101.699,52.75,138.074l36.763-17.431       c-0.721-0.738-1.438-1.478-2.143-2.238c-18.363-17.104-30.388-37.99-39.889-61.426c15.204,8.244,37.978,15.209,63.319,20.9       c2.125,10.22,4.62,19.925,7.536,29.097c1.354,4.252,2.792,8.395,4.338,12.403c1.597,4.146,3.308,8.152,5.126,12.031       l21.527-10.209c-2.013-3.826-3.86-7.768-5.568-11.819c-1.676-3.976-3.197-8.07-4.582-12.289       c-1.628-4.959-3.078-10.078-4.31-15.416c10.328,1.032,20.854,1.875,31.469,2.534c8.888,0.556,17.833,0.984,26.784,1.275v0.486       v14.461l18.291-8.674l5.756,2.729v-9.004c3.546-0.115,7.091-0.26,10.634-0.416c9.051-0.4,18.095-0.932,27.13-1.598       c7.047-0.521,14.089-1.115,21.124-1.797c-0.907,3.145-1.932,6.633-3.077,10.354l20.97,9.943       c2.254-7.433,4.289-15.229,6.179-23.457c23.412-5.064,44.933-11.396,61.414-19c-7.99,21.444-19.528,41.104-36.33,57.281       l36.805,17.452c30.585-35.903,48.911-82.707,48.911-134.25C497.179,242.496,406.633,151.307,292.036,151.307z M125.508,379.258       c-1.274-6.97-1.274-15.196-1.274-23.424c0-16.47,2.544-33.561,6.979-48.752c13.293,5.691,30.385,10.125,59.498,15.812       c-1.245,12.04-1.882,22.166-1.882,34.834c0,17.09,1.244,34.818,3.793,50.652C154.618,401.415,133.731,388.755,125.508,379.258z        M193.26,300.737c-37.37-10.125-46.87-10.762-52.55-15.829c7.592-16.453,18.337-32.918,32.912-46.217       c17.091-18.364,36.092-27.228,57.615-37.354C212.261,226.668,200.214,260.212,193.26,300.737z M279.349,419.154       c-21.523-0.638-42.407-2.535-63.932-6.347c-2.547-17.09-3.797-36.71-3.797-55.08c0-11.399,0.612-20.899,0.612-32.294       c21.55,2.535,44.322,3.805,67.116,4.43V419.154z M279.35,307.702c-21.523-0.625-43.044-1.897-63.933-3.793       c10.139-58.252,34.182-102.571,62.684-113.97h1.249V307.702z M303.422,189.939c4.431,0,10.771,5.071,16.454,8.864       c21.549,19.626,39.889,59.515,48.114,105.109c-21.521,1.896-42.408,3.168-64.568,3.793V189.939z M367.373,413.45       c-20.906,3.17-41.796,5.067-63.951,5.705v-89.29c23.432-0.626,45.594-1.896,67.116-3.794       c0.633,10.762,0.633,20.263,0.633,31.662C371.171,376.722,370.538,396.361,367.373,413.45z M352.169,200.701       c39.253,13.931,72.824,45.592,90.554,84.844c-5.067,3.81-19.001,9.501-53.185,15.833       C383.194,260.224,371.171,225.394,352.169,200.701z M390.81,409.019c1.886-15.833,3.159-34.195,3.159-51.287       c0-12.673,0-22.798-1.273-34.834c25.317-2.523,46.866-10.125,58.886-15.192c5.073,15.192,7.594,32.3,7.594,48.129       C459.176,383.065,456.652,398.258,390.81,409.019z"
                             id="path42" /><path
                             d="M355.328,510.332c6.264-8.604,11.438-17.858,15.856-27.879c1.733-3.93,3.354-7.975,4.874-12.149l-20.912-9.918       c-1.397,4.026-2.922,8.159-4.581,12.29c-10.13,25.211-25.287,50.312-47.144,50.312V450.32l-5.756-2.729l-18.291,8.674v66.723       c-17.114,0-31.662-18.362-41.163-41.149c-0.905-1.582-1.779-3.187-2.631-4.806l-21.527,10.209       c3.91,8.343,8.339,16.064,13.388,23.091c-10.102-4.242-20.032-9.332-29.374-15.511l-38.992,18.49       c35.817,30.199,82.183,48.307,132.959,48.307c52.971,0,100.793-19.493,136.92-51.77l-38.877-18.436       C379.156,499.164,367.244,505.332,355.328,510.332z"
                             id="path44" /></g></g></g></g></g></svg>
