<svg
     xmlns:dc="http://purl.org/dc/elements/1.1/"
     xmlns:cc="http://creativecommons.org/ns#"
     xmlns:rdf="http://www.w3.org/1999/02/22-rdf-syntax-ns#"
     xmlns:svg="http://www.w3.org/2000/svg"
     xmlns="http://www.w3.org/2000/svg"
     xmlns:sodipodi="http://sodipodi.sourceforge.net/DTD/sodipodi-0.dtd"
     xmlns:inkscape="http://www.inkscape.org/namespaces/inkscape"
     version="1.1"
     id="Calque_1"
     x="0px"
     y="0px"
     width="595.279px"
     height="841.891px"
     viewBox="0 0 595.279 841.891"
     enable-background="new 0 0 595.279 841.891"
     xml:space="preserve"
     sodipodi:docname="PROJ_logo_4.svg"
     inkscape:version="0.92.2 5c3e80d, 2017-08-06"><title
         id="title87">Sphere On A Plane 4</title><metadata
         id="metadata83"><rdf:RDF><cc:Work
                 rdf:about=""><dc:format>image/svg+xml</dc:format><dc:type
                     rdf:resource="http://purl.org/dc/dcmitype/StillImage" /><dc:title>Sphere On A Plane 4</dc:title><cc:license
                     rdf:resource="http://creativecommons.org/licenses/by/4.0/" /><dc:date>Fev 2018</dc:date><dc:creator><cc:Agent><dc:title>Nicolas Bozon</dc:title></cc:Agent></dc:creator><dc:rights><cc:Agent><dc:title>© PROJ.org</dc:title></cc:Agent></dc:rights><dc:publisher><cc:Agent><dc:title>proj.org</dc:title></cc:Agent></dc:publisher><dc:identifier>soap-04</dc:identifier><dc:source>mapsk.in</dc:source><dc:language>english</dc:language><dc:subject><rdf:Bag><rdf:li>sphere</rdf:li><rdf:li>plane</rdf:li><rdf:li>projection</rdf:li><rdf:li>proj</rdf:li></rdf:Bag></dc:subject><dc:description>PROJ logo proposal #4 (Sphere On A Plane)</dc:description><dc:contributor><cc:Agent><dc:title>Kristian Evers, Even Rouault</dc:title></cc:Agent></dc:contributor></cc:Work><cc:License
                 rdf:about="http://creativecommons.org/licenses/by/4.0/"><cc:permits
                     rdf:resource="http://creativecommons.org/ns#Reproduction" /><cc:permits
                     rdf:resource="http://creativecommons.org/ns#Distribution" /><cc:requires
                     rdf:resource="http://creativecommons.org/ns#Notice" /><cc:requires
                     rdf:resource="http://creativecommons.org/ns#Attribution" /><cc:permits
                     rdf:resource="http://creativecommons.org/ns#DerivativeWorks" /></cc:License></rdf:RDF></metadata><defs
         id="defs81" /><sodipodi:namedview
         pagecolor="#ffffff"
         bordercolor="#666666"
         borderopacity="1"
         objecttolerance="10"
         gridtolerance="10"
         guidetolerance="10"
         inkscape:pageopacity="0"
         inkscape:pageshadow="2"
         inkscape:window-width="640"
         inkscape:window-height="480"
         id="namedview79"
         showgrid="false"
         inkscape:zoom="0.28032133"
         inkscape:cx="297.6395"
         inkscape:cy="420.9455"
         inkscape:window-x="894"
         inkscape:window-y="192"
         inkscape:window-maximized="0"
         inkscape:current-layer="Calque_1" /><g
         id="g76"><path
             fill="none"
             d="M153.808,509.33L153.808,509.33l0.58-0.274c0,0,0,0,0,0l3.221-1.527l-3.221,1.526   c-3.169-2.785-6.24-5.677-9.237-8.644c2.997,2.968,6.068,5.859,9.236,8.645L153.808,509.33z"
             id="path2" /><polygon
             fill="none"
             points="529.962,549.347 529.961,549.346 299.694,658.546  "
             id="polygon4" /><path
             fill="none"
             d="M456.242,484.879c-5.6,7.363-11.678,14.343-18.206,20.875C444.565,499.222,450.643,492.242,456.242,484.879z"
             id="path6" /><polygon
             fill="none"
             points="529.961,549.345 529.963,549.344 438.036,505.754 529.96,549.344  "
             id="polygon8" /><polygon
             fill="none"
             points="529.961,549.346 529.96,549.346 529.961,549.345 529.96,549.344 299.694,658.542 69.427,549.343    299.694,658.546  "
             id="polygon10" /><rect
             x="529.96"
             y="549.345"
             width="0.001"
             height="0.001"
             id="rect12" /><polygon
             points="153.224,509.608 153.224,509.607 69.427,549.343 153.225,509.608  "
             id="polygon14" /><path
             d="M438.036,505.754c6.528-6.532,12.606-13.512,18.206-20.875l-0.001-0.001c-5.6,7.363-11.678,14.341-18.207,20.875   L438.036,505.754z"
             id="path16" /><polygon
             points="438.033,505.754 438.036,505.754 438.034,505.753  "
             id="polygon18" /><path
             d="M134.322,489.059c5.831,7.272,12.145,14.143,18.902,20.548v-0.001C146.467,503.199,140.154,496.331,134.322,489.059z"
             id="path20" /><rect
             x="153.224"
             y="509.606"
             width="0"
             height="0"
             id="rect22" /><polygon
             points="153.225,509.608 153.224,509.607 153.224,509.608  "
             id="polygon24" /><polygon
             points="153.224,509.606 153.224,509.607 153.224,509.607  "
             id="polygon26" /><path
             d="M497.71,366.922c0.043-1.642,0.071-3.287,0.075-4.938C497.781,363.635,497.753,365.28,497.71,366.922z"
             id="path28" /><polygon
             points="497.791,361.439 497.791,361.437 497.791,361.437  "
             id="polygon30" /><g
             id="g40"><path
                 d="M302.784,156.657c0.005,0,0.01,0,0.015,0.001c0.128,0.005,0.258,0.008,0.387,0.014    C303.052,156.666,302.918,156.664,302.784,156.657z"
                 id="path32" /><g
                 id="g38"><path
                     d="M456.242,484.879c-5.599,7.363-11.677,14.343-18.206,20.875l91.927,43.59l-0.002,0.001l0.001,0.001h-0.001l0.001,0.001     L299.694,658.546L69.427,549.343l83.795-39.736c-6.757-6.405-13.071-13.275-18.903-20.548L7.195,549.343l292.499,138.71     L592.19,549.346L456.242,484.879z"
                     id="path34" /><path
                     d="M103.584,435.437c7.564,19.184,17.962,36.938,30.657,52.766l0.001-0.001c0,0,0,0,0.001,0l0.105-0.05     c3.428,3.938,7.014,7.732,10.721,11.403c2.997,2.967,6.068,5.858,9.237,8.644l3.221-1.526v0.002l-3.22,1.526c0,0,0,0,0-0.001     l-0.58,0.275v0.644h-0.002v-0.643l-0.58,0.274c36.592,34.689,86.02,55.974,140.42,55.974c56.391,0,107.44-22.863,144.385-59.827     l-1.106-0.525c0,0,0,0,0.001-0.001l-0.002-0.001c6.855-6.36,13.295-13.163,19.255-20.379l0.062,0.029     c12.209-16.057,22.104-33.967,29.163-53.247c7.954-21.724,12.314-45.179,12.381-69.647c0.001-0.182,0.007-0.361,0.007-0.545     c-0.007-109.656-86.45-199.084-194.911-203.922c-0.008,0-0.016,0-0.023-0.001c-1.404-0.062-2.811-0.119-4.222-0.153     c-1.598-0.042-3.2-0.065-4.807-0.066c-0.061,0-0.119-0.002-0.18-0.002C180.813,156.449,89.428,247.83,89.423,360.582     c0,0.146,0.004,0.289,0.004,0.436C89.484,387.285,94.495,412.389,103.584,435.437z M172.083,482.065     c-20.369-20.382-35.627-45.784-43.74-74.22c15.623,11.382,36.254,20.369,60.507,27.217c8.768,2.45,18.021,4.591,27.668,6.407     c3.868,19.592,9.116,37.463,15.521,52.995c5.094,12.286,10.916,23.108,17.564,32.244     C219.834,518.856,193.253,503.22,172.083,482.065z M233.196,360.337c-0.015-20.904,1.504-40.948,4.227-59.493     c17.805-2.493,36.942-3.87,56.87-3.868c8.549-0.004,16.947,0.262,25.168,0.744c6.624,5.84,13.219,12.024,19.723,18.529     c7.311,7.309,14.198,14.729,20.662,22.18c0.364,7.177,0.562,14.486,0.561,21.908c0.013,20.811-1.492,40.763-4.194,59.239     c-19.211,2.965-40.091,4.617-61.919,4.617c-9.138,0.002-18.114-0.286-26.876-0.841c-6.104-5.436-12.182-11.149-18.185-17.151     c-5.206-5.205-10.194-10.465-14.978-15.753C233.564,380.667,233.192,370.609,233.196,360.337z M299.737,531.709v-0.003     c0.021,0.008,0.042,0.013,0.062,0.02C299.779,531.722,299.76,531.714,299.737,531.709z M301.053,532.12     c-0.312-0.115-0.625-0.221-0.944-0.312c0.23,0.06,0.524,0.143,0.944,0.308V532.12z M317.607,520.6     c-7.646,7.747-14.49,10.737-20.804,10.743c-0.002,0-0.002,0-0.002,0c-6.318-0.006-13.165-2.997-20.81-10.743     c-11.368-11.495-22.565-33.154-30.312-61.135c-1.266-4.527-2.441-9.233-3.533-14.074c5.055,0.605,10.189,1.127,15.4,1.556     c19.828,16.994,39.946,31.157,59.319,42.022c5.606,3.126,11.142,5.974,16.596,8.552     C328.453,507.257,323.019,515.093,317.607,520.6z M328.724,467.806c-9.802-5.49-19.943-11.996-30.205-19.405     c18.451-0.178,36.256-1.429,53.086-3.659c-2.457,10.984-5.379,21.181-8.66,30.461     C338.307,472.99,333.553,470.528,328.724,467.806z M345.701,524.333c3.699-5.354,7.138-11.25,10.319-17.646     c6.584,2.203,13.011,3.913,19.243,5.074C365.898,516.833,356.01,521.054,345.701,524.333z M417.117,479.948     c-0.686,0.709-1.369,1.419-2.066,2.117c-0.702,0.704-1.422,1.396-2.138,2.084c-4.341,3.212-10.495,5.143-19.352,5.186     c-7.835,0.047-17.405-1.674-28.09-5.098c2.084-5.822,4.022-11.902,5.809-18.246c2.269-8.119,4.266-16.66,5.994-25.538     c14.001-2.86,27.087-6.434,39.054-10.636c4.014,11.764,6.039,22.279,5.986,30.761     C422.273,469.442,420.333,475.598,417.117,479.948z M381.353,414.728c1.78-14.296,2.871-29.269,3.194-44.725     c6.105,8.737,11.545,17.365,16.239,25.745c2.229,3.954,4.266,7.848,6.153,11.68c-4.392,1.511-8.976,2.945-13.757,4.273     C389.358,412.774,385.405,413.78,381.353,414.728z M444.736,442.286c-1.307-7.03-3.312-14.297-5.94-21.769     c7.157-3.48,13.72-7.258,19.608-11.365C454.991,420.753,450.395,431.847,444.736,442.286z M454.175,381.397     c-5.819,5.768-14.259,11.49-24.8,16.741c-2.279-4.694-4.75-9.444-7.429-14.249c-10.078-17.979-23.006-36.599-38.394-55.032     c-0.529-7.622-1.246-15.095-2.144-22.393c13.876,3.253,26.504,7.224,37.447,11.771c15.534,6.413,27.662,13.992,35.317,21.53     c7.729,7.645,10.709,14.491,10.721,20.819C464.883,366.907,461.903,373.753,454.175,381.397z M415.051,239.101     c20.053,20.07,35.145,45.009,43.352,72.914c-15.39-10.763-35.352-19.327-58.679-25.912c-7.144-1.998-14.615-3.787-22.357-5.368     c-3.894-20.185-9.235-38.592-15.807-54.53c-4.541-10.942-9.642-20.751-15.401-29.222     C372.439,205.422,395.949,220.014,415.051,239.101z M275.992,200.074c7.648-7.748,14.495-10.737,20.812-10.745     c6.308,0.007,13.158,2.997,20.804,10.745c11.366,11.494,22.564,33.152,30.312,61.133c1.366,4.889,2.631,9.979,3.798,15.23     c-7.338-0.977-14.856-1.771-22.537-2.369c-19.282-16.356-38.813-30.026-57.636-40.58c-4.424-2.466-8.799-4.75-13.131-6.88     C263.885,215.254,269.954,206.22,275.992,200.074z M259.681,254.646c9.246,5.177,18.786,11.256,28.447,18.142     c-15.936,0.222-31.372,1.249-46.106,3.01c2.126-9.494,4.602-18.393,7.354-26.63C252.765,250.865,256.204,252.683,259.681,254.646     z M249.149,194.583c-4.764,6.635-9.108,14.155-13.044,22.462c-8.876-3.193-17.463-5.481-25.716-6.817     C222.489,203.516,235.48,198.227,249.149,194.583z M173.214,240.235c4.382-4.368,11.115-7.069,21.637-7.116     c8.822-0.057,19.836,2.132,32.174,6.469c-1.667,4.86-3.24,9.888-4.706,15.095c-2.226,7.97-4.192,16.338-5.896,25.04     c-16.147,3.047-31.158,7.025-44.711,11.819c-3.766-11.324-5.66-21.45-5.611-29.669     C166.151,251.347,168.84,244.617,173.214,240.235z M212.329,305.281c-2.173,17.212-3.349,35.409-3.383,54.25     c-8.209-11.156-15.361-22.188-21.318-32.825c-2.435-4.317-4.649-8.567-6.674-12.736c4.597-1.598,9.411-3.112,14.441-4.508     C200.809,307.945,206.469,306.549,212.329,305.281z M128.335,313.343c3.604-12.634,8.624-24.664,14.873-35.926     c1.223,7.556,3.262,15.397,6.051,23.48C141.546,304.683,134.548,308.822,128.335,313.343c0.001,0,0.001-0.001,0.002-0.002     L128.335,313.343z M134.408,339.764c5.7-5.649,13.909-11.255,24.151-16.417c2.408,5.008,5.047,10.083,7.909,15.219     c11.336,20.217,26.269,41.251,44.265,61.91c0.464,5.211,1.012,10.354,1.652,15.401c-15.943-3.447-30.357-7.833-42.66-12.945     c-15.533-6.417-27.664-13.997-35.318-21.535c-7.729-7.643-10.716-14.488-10.719-20.812     C123.692,354.256,126.679,347.409,134.408,339.764z"
                     id="path36" /></g></g><path
             d="M497.791,361.435c0-0.286-0.01-0.569-0.011-0.854c0.001,0.286,0.011,0.57,0.011,0.856   C497.791,361.436,497.791,361.435,497.791,361.435z"
             id="path42" /><polygon
             points="134.323,489.058 134.322,489.059 134.323,489.058  "
             id="polygon44" /><rect
             x="438.031"
             y="505.753"
             width="0.001"
             height="0"
             id="rect46" /><path
             d="M438.031,505.753L438.031,505.753l0.002-0.001l0.001,0.001c6.529-6.534,12.607-13.512,18.207-20.875l-0.062-0.029   c-5.96,7.215-12.398,14.017-19.254,20.378L438.031,505.753L438.031,505.753z"
             id="path48" /><polygon
             points="438.033,505.754 438.032,505.753 438.032,505.753  "
             id="polygon50" /><rect
             x="438.032"
             y="505.752"
             width="0.001"
             height="0.001"
             id="rect52" /><rect
             x="437.478"
             y="504.878"
             width="0.001"
             height="1.225"
             id="rect54" /><rect
             x="437.478"
             y="504.878"
             width="0.001"
             height="1.225"
             id="rect56" /><path
             d="M153.806,508.69h0.002v0.641l0.579-0.274c-3.168-2.785-6.239-5.677-9.236-8.645c-3.708-3.671-7.294-7.465-10.721-11.403   l-0.106,0.05c5.832,7.272,12.145,14.143,18.902,20.548h-0.001v0.001l0.581-0.275V508.69z"
             id="path58" /><path
             d="M153.224,509.606L153.224,509.606L153.224,509.606L153.224,509.606h0.002c-6.757-6.405-13.071-13.275-18.902-20.548   l-0.001,0.001C140.154,496.331,146.467,503.199,153.224,509.606z"
             id="path60" /><polygon
             points="153.224,509.607 153.225,509.607 153.225,509.606  "
             id="polygon62" /><polygon
             points="153.225,509.606 153.224,509.606 153.224,509.606 153.224,509.607 153.225,509.606  "
             id="polygon64" /><path
             d="M145.151,500.411c-3.708-3.671-7.294-7.465-10.721-11.403C137.857,492.947,141.443,496.74,145.151,500.411z"
             id="path66" /><rect
             x="153.806"
             y="509.33"
             width="0.001"
             height="0.002"
             id="rect68" /><rect
             x="153.806"
             y="509.331"
             width="0.002"
             height="0.644"
             id="rect70" /><rect
             x="153.806"
             y="508.69"
             width="0.002"
             height="0.642"
             id="rect72" /><polygon
             points="154.388,509.056 154.388,509.057 157.608,507.531 154.388,509.056  "
             id="polygon74" /></g></svg>
