<?xml version="1.0" encoding="UTF-8" standalone="no"?>
<svg
     xmlns:dc="http://purl.org/dc/elements/1.1/"
     xmlns:cc="http://creativecommons.org/ns#"
     xmlns:rdf="http://www.w3.org/1999/02/22-rdf-syntax-ns#"
     xmlns:svg="http://www.w3.org/2000/svg"
     xmlns="http://www.w3.org/2000/svg"
     xmlns:sodipodi="http://sodipodi.sourceforge.net/DTD/sodipodi-0.dtd"
     xmlns:inkscape="http://www.inkscape.org/namespaces/inkscape"
     version="1.1"
     id="Calque_1"
     x="0px"
     y="0px"
     width="595.279px"
     height="841.891px"
     viewBox="0 0 595.279 841.891"
     enable-background="new 0 0 595.279 841.891"
     xml:space="preserve"
     sodipodi:docname="PROJ_logo_3.svg"
     inkscape:version="0.92.2 5c3e80d, 2017-08-06"><title
         id="title19">Sphere On A Plane 3</title><metadata
         id="metadata15"><rdf:RDF><cc:Work
                 rdf:about=""><dc:format>image/svg+xml</dc:format><dc:type
                     rdf:resource="http://purl.org/dc/dcmitype/StillImage" /><dc:title>Sphere On A Plane 3</dc:title><cc:license
                     rdf:resource="http://creativecommons.org/licenses/by/4.0/" /><dc:date>Fev 2018</dc:date><dc:creator><cc:Agent><dc:title>Nicolas Bozon</dc:title></cc:Agent></dc:creator><dc:rights><cc:Agent><dc:title>© PROJ.org</dc:title></cc:Agent></dc:rights><dc:publisher><cc:Agent><dc:title>proj.org</dc:title></cc:Agent></dc:publisher><dc:identifier>soap-03</dc:identifier><dc:source>mapsk.in</dc:source><dc:language>english</dc:language><dc:subject><rdf:Bag><rdf:li>sphere</rdf:li><rdf:li>plane</rdf:li><rdf:li>projection</rdf:li><rdf:li>proj</rdf:li></rdf:Bag></dc:subject><dc:description>PROJ logo proposal #3 (Sphere On A Plane)</dc:description><dc:contributor><cc:Agent><dc:title>Kristian Evers, Even Rouault</dc:title></cc:Agent></dc:contributor></cc:Work><cc:License
                 rdf:about="http://creativecommons.org/licenses/by/4.0/"><cc:permits
                     rdf:resource="http://creativecommons.org/ns#Reproduction" /><cc:permits
                     rdf:resource="http://creativecommons.org/ns#Distribution" /><cc:requires
                     rdf:resource="http://creativecommons.org/ns#Notice" /><cc:requires
                     rdf:resource="http://creativecommons.org/ns#Attribution" /><cc:permits
                     rdf:resource="http://creativecommons.org/ns#DerivativeWorks" /></cc:License></rdf:RDF></metadata><defs
         id="defs13" /><sodipodi:namedview
         pagecolor="#ffffff"
         bordercolor="#666666"
         borderopacity="1"
         objecttolerance="10"
         gridtolerance="10"
         guidetolerance="10"
         inkscape:pageopacity="0"
         inkscape:pageshadow="2"
         inkscape:window-width="640"
         inkscape:window-height="480"
         id="namedview11"
         showgrid="false"
         inkscape:zoom="0.28032133"
         inkscape:cx="297.6395"
         inkscape:cy="420.9455"
         inkscape:window-x="544"
         inkscape:window-y="0"
         inkscape:window-maximized="0"
         inkscape:current-layer="Calque_1" /><g
         id="g8"><path
             fill="none"
             d="M430.868,508.146c-36.305,33.524-84.702,53.993-137.856,53.993c-51.662,0-98.829-19.34-134.769-51.204   l-86.423,40.98l225.676,107.021l225.676-107.021L430.868,508.146z"
             id="path2" /><path
             d="M347.057,343.765c7.205-7.271,10.814-16.777,10.814-28.52c0-11.495-3.609-20.768-10.814-27.811   c-7.445-7.036-17.213-10.558-29.305-10.558h-60.699v77.444h60.699C329.844,354.323,339.612,350.808,347.057,343.765z"
             id="path4" /><path
             d="M449.776,488.191c29.478-35.598,47.215-81.385,47.215-131.346c0-113.38-91.323-205.293-203.979-205.293   c-112.654,0-203.979,91.914-203.979,205.293c0,51.395,18.776,98.366,49.788,134.377L10.829,551.917L297.495,687.86l286.665-135.94   L449.776,488.191z M230.541,253.156h87.212c20.233,0,36.396,5.702,48.492,17.095c12.09,11.164,18.141,26.164,18.141,45.003   c0,19.071-6.051,34.308-18.141,45.698c-12.097,11.398-28.259,17.096-48.492,17.096h-60.699v87.213h-26.513V253.156L230.541,253.156   z M71.82,551.917l86.423-40.981c35.939,31.864,83.106,51.204,134.769,51.204c53.154,0,101.553-20.469,137.856-53.993l92.303,43.772   l-225.676,107.02L71.82,551.917z"
             id="path6" /></g></svg>